# xmcd
#
# Track frame offsets: 
#        150
#        11559
#        24829
#        35249
#        47918
#        57664
#        70634
#        83379
#        95832
#        108177
#        121896
#        138177
#        151447
#        163291
#        175107
#        186651
#        199696
#        207614
#
# Disc length: 2888 seconds
#
# Revision: 0
# Processed by: cddbd v1.5.1PL0 Copyright (c) Steve Scherf et al.
# Submitted via: ExactAudioCopy v0.95a4
#
DISCID=fd0b4612
DTITLE=Floyd Cramer - Favorite Country Hits
DYEAR=1900
DGENRE=Country
TTITLE0=Last Date
TTITLE1=Sweet Dreams
TTITLE2=Walking the Floor over You
TTITLE3=It's Only Make Believe
TTITLE4=Jambalaya (On the Bayou)
TTITLE5=I Fall to Pieces
TTITLE6=Singing the Blues
TTITLE7=Behind Closed Doors
TTITLE8=She Thinks I Still  Care
TTITLE9=Friends in Low Places
TTITLE10=Always On My Mind
TTITLE11=For the Good Times
TTITLE12=Lovesick Blues
TTITLE13=King of the Road
TTITLE14=Please Help Me, I'm Falling
TTITLE15=Have I Told You Lately
TTITLE16=Hey, Good Lookin'
TTITLE17=Forever and Ever, Amen
EXTD=
EXTT0=
EXTT1=
EXTT2=
EXTT3=
EXTT4=
EXTT5=
EXTT6=
EXTT7=
EXTT8=
EXTT9=
EXTT10=
EXTT11=
EXTT12=
EXTT13=
EXTT14=
EXTT15=
EXTT16=
EXTT17=
PLAYORDER=
